<?xml version="1.0" encoding="utf-8"?>
<!-- Generator: Adobe Illustrator 27.5.0, SVG Export Plug-In . SVG Version: 6.00 Build 0)  -->
<svg version="1.1" xmlns="http://www.w3.org/2000/svg" xmlns:xlink="http://www.w3.org/1999/xlink" x="0px" y="0px"
	 viewBox="0 0 800 500" style="enable-background:new 0 0 800 500;" xml:space="preserve">
<g id="_x31_23">
	<g>
		<rect style="fill:#FFFFFF;" width="800" height="500"/>
		<g>
			<path style="fill:#2954C8;" d="M0,131.507l44.5-16.81C89,98.031,178,64.411,266.8,85.101
				c88.899,20.545,177.5,95.255,266.399,104.306C622,198.602,711,141.994,755.5,113.836L800,85.531v331.885
				c-167.523,0-335.048,0-502.571,0c-83.762,0-167.523,0-251.285,0C42.707,417.416,0,417.515,0,417.3c0-2.032,0-4.065,0-6.098
				c0-11.134,0-22.267,0-33.399C0,295.703,0,213.605,0,131.507z"/>
			<path style="fill:#77A2EB;" d="M800,329.656l-44.5-14.104C711,301.449,622,273.24,533.2,261.486
				c-88.899-11.753-177.5-7.051-266.399-12.928C178,242.682,89,226.227,44.5,217.999L0,209.771v207.644
				c259.662,0,519.324,0,778.985,0c7.005,0,14.01,0,21.015,0V329.656z"/>
			<path style="fill:#BCD4F7;" d="M0,309.416l44.5-8.3c44.5-8.4,133.5-25,222.3-13.4c88.899,11.7,177.5,51.7,266.399,48
				c88.801-3.6,177.801-51,222.301-74.6l44.5-23.7v177c-259.662,0-519.324,0-778.985,0c-7.005,0-14.01,0-21.015,0V309.416z"/>
			<path style="fill:#FFFFFF;" d="M0,379.416l44.5-15.7c44.5-15.6,133.5-47,222.3-43.8c88.899,3.2,177.5,40.8,266.399,47.7
				c88.801,6.8,177.801-17.2,222.301-29.2l44.5-12v94c-259.662,0-519.324,0-778.985,0c-7.005,0-14.01,0-21.015,0V379.416z"/>
		</g>
	</g>
</g>
<g id="Layer_1">
</g>
</svg>
